<svg width="268" height="89" viewBox="0 0 268 89" fill="none" xmlns="http://www.w3.org/2000/svg">
<path d="M44.4729 68.6525C43.8649 68.6506 43.2663 68.5081 42.7248 68.2345L2.17451 47.9784C0.238226 47.0075 -0.544731 44.6511 0.426365 42.7149C1.39729 40.7786 3.75363 39.9956 5.68991 40.9667L44.4731 60.3488L83.2563 40.9478C85.1926 39.9769 87.5489 40.7596 88.5198 42.6959C89.4908 44.6322 88.708 46.9885 86.7717 47.9595L46.2211 68.2345C45.6796 68.5081 45.081 68.6506 44.4729 68.6525Z" fill="#FFB703"/>
<path d="M44.4729 88.9275C43.8649 88.9256 43.2663 88.7832 42.7248 88.5096L2.17451 68.2343C0.238226 67.2634 -0.544731 64.9071 0.426365 62.9708C1.39746 61.0345 3.75363 60.2515 5.68991 61.2226L44.4731 80.5667L83.2563 61.1846C85.1926 60.2137 87.5489 60.9964 88.5198 62.9327C89.4908 64.869 88.708 67.2254 86.7717 68.1963L46.2214 88.5094C45.6796 88.7832 45.081 88.9256 44.4729 88.9275Z" fill="#16DB93"/>
<path d="M44.473 48.3773C43.8649 48.3754 43.2663 48.233 42.7248 47.9594L2.17454 27.7031C0.238256 26.7415 -0.552171 24.3928 0.409197 22.4565C0.789296 21.6908 1.40878 21.0713 2.17454 20.6912L42.7248 0.416147C43.8307 -0.138716 45.1343 -0.138716 46.2402 0.416147L86.7716 20.6914C88.7078 21.6529 89.4983 24.0016 88.5369 25.9379C88.1568 26.7037 87.5373 27.3231 86.7716 27.7032L46.2211 47.9783C45.6777 48.2443 45.0791 48.381 44.473 48.3773ZM12.7016 24.1877L44.473 40.0733L76.2443 24.1877L44.473 8.35898L12.7016 24.1877Z" fill="#219EBC"/>
<path d="M128.282 47.8001C128.282 49.9121 127.813 51.8535 126.874 53.6241C125.936 55.3735 124.634 56.7601 122.97 57.7841C121.328 58.8081 119.472 59.3201 117.402 59.3201C115.333 59.3201 113.466 58.8081 111.802 57.7841C110.16 56.7601 108.869 55.3735 107.93 53.6241C107.013 51.8535 106.554 49.9121 106.554 47.8001C106.554 45.6881 107.013 43.7575 107.93 42.0081C108.869 40.2375 110.16 38.8401 111.802 37.8161C113.466 36.7921 115.333 36.2801 117.402 36.2801C119.472 36.2801 121.328 36.7921 122.97 37.8161C124.634 38.8401 125.936 40.2375 126.874 42.0081C127.813 43.7575 128.282 45.6881 128.282 47.8001ZM124.122 47.8001C124.122 46.3708 123.834 45.0801 123.258 43.9281C122.682 42.7548 121.882 41.8268 120.858 41.1441C119.834 40.4615 118.682 40.1201 117.402 40.1201C116.101 40.1201 114.938 40.4615 113.914 41.1441C112.912 41.8055 112.122 42.7228 111.546 43.8961C110.992 45.0695 110.714 46.3708 110.714 47.8001C110.714 49.2295 110.992 50.5308 111.546 51.7041C112.122 52.8775 112.912 53.8055 113.914 54.4881C114.938 55.1495 116.101 55.4801 117.402 55.4801C118.682 55.4801 119.834 55.1388 120.858 54.4561C121.882 53.7735 122.682 52.8561 123.258 51.7041C123.834 50.5308 124.122 49.2295 124.122 47.8001ZM140.499 41.5601C141.971 41.5601 143.305 41.9441 144.499 42.7121C145.694 43.4588 146.633 44.5041 147.315 45.8481C148.019 47.1921 148.371 48.7175 148.371 50.4241C148.371 52.1308 148.03 53.6668 147.347 55.0321C146.665 56.3761 145.726 57.4321 144.531 58.2001C143.358 58.9468 142.057 59.3201 140.627 59.3201C139.603 59.3201 138.633 59.1175 137.715 58.7121C136.819 58.2855 136.073 57.7735 135.475 57.1761V63.4481C135.475 64.0028 135.294 64.4615 134.931 64.8241C134.569 65.2081 134.11 65.4001 133.555 65.4001C133.001 65.4001 132.542 65.2188 132.179 64.8561C131.817 64.4935 131.635 64.0241 131.635 63.4481V43.8321C131.635 43.2775 131.817 42.8188 132.179 42.4561C132.542 42.0721 133.001 41.8801 133.555 41.8801C134.11 41.8801 134.569 42.0721 134.931 42.4561C135.294 42.8188 135.475 43.2775 135.475 43.8321V43.9601C135.987 43.3201 136.702 42.7655 137.619 42.2961C138.537 41.8055 139.497 41.5601 140.499 41.5601ZM140.019 55.8001C141.385 55.8001 142.505 55.2881 143.379 54.2641C144.254 53.2401 144.691 51.9601 144.691 50.4241C144.691 48.8881 144.254 47.6188 143.379 46.6161C142.526 45.5921 141.406 45.0801 140.019 45.0801C138.633 45.0801 137.502 45.5921 136.627 46.6161C135.753 47.6188 135.315 48.8881 135.315 50.4241C135.315 51.9601 135.753 53.2401 136.627 54.2641C137.502 55.2881 138.633 55.8001 140.019 55.8001ZM166.933 50.0401C166.912 50.5521 166.709 50.9681 166.325 51.2881C165.941 51.6081 165.493 51.7681 164.981 51.7681H154.421C154.677 53.0268 155.264 54.0188 156.181 54.7441C157.098 55.4481 158.133 55.8001 159.285 55.8001C160.16 55.8001 160.842 55.7255 161.333 55.5761C161.824 55.4055 162.208 55.2348 162.485 55.0641C162.784 54.8721 162.986 54.7441 163.093 54.6801C163.477 54.4881 163.84 54.3921 164.181 54.3921C164.629 54.3921 165.013 54.5521 165.333 54.8721C165.653 55.1921 165.813 55.5655 165.813 55.9921C165.813 56.5681 165.514 57.0908 164.917 57.5601C164.32 58.0508 163.52 58.4668 162.517 58.8081C161.514 59.1495 160.501 59.3201 159.477 59.3201C157.685 59.3201 156.117 58.9468 154.773 58.2001C153.45 57.4535 152.426 56.4295 151.701 55.1281C150.976 53.8055 150.613 52.3228 150.613 50.6801C150.613 48.8455 150.997 47.2348 151.765 45.8481C152.533 44.4615 153.546 43.4055 154.805 42.6801C156.064 41.9335 157.408 41.5601 158.837 41.5601C160.245 41.5601 161.568 41.9441 162.805 42.7121C164.064 43.4801 165.066 44.5148 165.813 45.8161C166.56 47.1175 166.933 48.5255 166.933 50.0401ZM158.837 45.0801C156.362 45.0801 154.901 46.2428 154.453 48.5681H162.837V48.3441C162.752 47.4481 162.314 46.6801 161.525 46.0401C160.736 45.4001 159.84 45.0801 158.837 45.0801ZM179.287 41.5601C181.463 41.5601 182.967 42.2108 183.799 43.5121C184.631 44.7921 185.047 46.5735 185.047 48.8561V57.0481C185.047 57.6028 184.866 58.0721 184.503 58.4561C184.141 58.8188 183.682 59.0001 183.127 59.0001C182.573 59.0001 182.114 58.8188 181.751 58.4561C181.389 58.0721 181.207 57.6028 181.207 57.0481V48.8561C181.207 47.6828 180.962 46.7655 180.471 46.1041C179.981 45.4215 179.138 45.0801 177.943 45.0801C176.706 45.0801 175.735 45.4428 175.031 46.1681C174.327 46.8721 173.975 47.7681 173.975 48.8561V57.0481C173.975 57.6028 173.794 58.0721 173.431 58.4561C173.069 58.8188 172.61 59.0001 172.055 59.0001C171.501 59.0001 171.042 58.8188 170.679 58.4561C170.317 58.0721 170.135 57.6028 170.135 57.0481V43.8321C170.135 43.2775 170.317 42.8188 170.679 42.4561C171.042 42.0721 171.501 41.8801 172.055 41.8801C172.61 41.8801 173.069 42.0721 173.431 42.4561C173.794 42.8188 173.975 43.2775 173.975 43.8321V44.3761C174.551 43.6081 175.298 42.9468 176.215 42.3921C177.154 41.8375 178.178 41.5601 179.287 41.5601Z" fill="#EEEEEE"/>
<path d="M214.702 36.5041C215.214 36.5041 215.683 36.7068 216.11 37.1121C216.558 37.4961 216.782 37.9868 216.782 38.5841C216.782 38.7761 216.75 38.9895 216.686 39.2241L210.382 57.7841C210.254 58.1468 210.03 58.4348 209.71 58.6481C209.39 58.8615 209.038 58.9788 208.654 59.0001C208.27 59.0001 207.907 58.8935 207.566 58.6801C207.225 58.4668 206.958 58.1575 206.766 57.7521L202.222 47.4161L197.646 57.7521C197.454 58.1575 197.187 58.4668 196.846 58.6801C196.505 58.8935 196.142 59.0001 195.758 59.0001C195.374 58.9788 195.022 58.8615 194.702 58.6481C194.382 58.4348 194.158 58.1468 194.03 57.7841L187.726 39.2241C187.662 38.9895 187.63 38.7761 187.63 38.5841C187.63 37.9868 187.843 37.4961 188.27 37.1121C188.718 36.7068 189.209 36.5041 189.742 36.5041C190.169 36.5041 190.553 36.6215 190.894 36.8561C191.235 37.0695 191.47 37.3681 191.598 37.7521L196.366 52.2161L200.526 42.2321C200.697 41.8481 200.942 41.5495 201.262 41.3361C201.582 41.1015 201.945 40.9948 202.35 41.0161C202.755 40.9948 203.107 41.1015 203.406 41.3361C203.726 41.5495 203.971 41.8481 204.142 42.2321L208.078 52.1201L212.814 37.7521C212.942 37.3681 213.177 37.0695 213.518 36.8561C213.881 36.6215 214.275 36.5041 214.702 36.5041Z" fill="#219EBC"/>
<path d="M239.129 36.5681C239.663 36.5681 240.121 36.7601 240.505 37.1441C240.911 37.5068 241.113 37.9655 241.113 38.5201V57.0481C241.113 57.6028 240.932 58.0721 240.569 58.4561C240.207 58.8188 239.727 59.0001 239.129 59.0001C238.532 59.0001 238.041 58.8188 237.657 58.4561C237.295 58.0935 237.113 57.6241 237.113 57.0481V44.1521L231.833 52.2161C231.62 52.4721 231.375 52.6855 231.097 52.8561C230.82 53.0055 230.532 53.0695 230.233 53.0481C229.956 53.0695 229.679 53.0055 229.401 52.8561C229.124 52.6855 228.879 52.4721 228.665 52.2161L223.385 43.8641V57.0481C223.385 57.6241 223.215 58.0935 222.873 58.4561C222.532 58.8188 222.084 59.0001 221.529 59.0001C220.996 59.0001 220.559 58.8188 220.217 58.4561C219.876 58.0721 219.705 57.6028 219.705 57.0481V38.5201C219.705 37.9868 219.897 37.5281 220.281 37.1441C220.687 36.7601 221.167 36.5681 221.721 36.5681C222.041 36.5681 222.361 36.6535 222.681 36.8241C223.001 36.9735 223.247 37.1761 223.417 37.4321L230.393 48.1521L237.561 37.4321C237.732 37.1761 237.956 36.9735 238.233 36.8241C238.532 36.6535 238.831 36.5681 239.129 36.5681Z" fill="#FFB703"/>
<path d="M253.124 59.3201C251.588 59.3201 250.223 59.1281 249.028 58.7441C247.834 58.3601 246.714 57.7095 245.668 56.7921C245.092 56.2801 244.804 55.7148 244.804 55.0961C244.804 54.6055 244.986 54.1788 245.348 53.8161C245.711 53.4321 246.148 53.2401 246.66 53.2401C247.066 53.2401 247.428 53.3681 247.748 53.6241C248.602 54.3281 249.434 54.8401 250.244 55.1601C251.055 55.4801 252.015 55.6401 253.124 55.6401C254.319 55.6401 255.343 55.3735 256.196 54.8401C257.071 54.3068 257.508 53.6455 257.508 52.8561C257.508 51.8961 257.082 51.1495 256.228 50.6161C255.375 50.0615 254.02 49.6455 252.164 49.3681C247.492 48.6855 245.156 46.5095 245.156 42.8401C245.156 41.4961 245.508 40.3335 246.212 39.3521C246.916 38.3495 247.876 37.5921 249.092 37.0801C250.308 36.5468 251.663 36.2801 253.156 36.2801C254.5 36.2801 255.759 36.4828 256.932 36.8881C258.127 37.2935 259.119 37.8268 259.908 38.4881C260.527 38.9788 260.836 39.5441 260.836 40.1841C260.836 40.6748 260.655 41.1121 260.292 41.4961C259.93 41.8588 259.503 42.0401 259.012 42.0401C258.692 42.0401 258.404 41.9441 258.148 41.7521C257.594 41.3041 256.815 40.8988 255.812 40.5361C254.831 40.1521 253.946 39.9601 253.156 39.9601C251.812 39.9601 250.767 40.2161 250.02 40.7281C249.295 41.2188 248.932 41.8695 248.932 42.6801C248.932 43.5975 249.306 44.2908 250.052 44.7601C250.82 45.2295 252.015 45.6135 253.636 45.9121C255.471 46.2321 256.932 46.6481 258.02 47.1601C259.13 47.6508 259.962 48.3335 260.516 49.2081C261.071 50.0615 261.348 51.2028 261.348 52.6321C261.348 53.9761 260.964 55.1601 260.196 56.1841C259.45 57.1868 258.447 57.9655 257.188 58.5201C255.93 59.0535 254.575 59.3201 253.124 59.3201Z" fill="#16DB93"/>
</svg>
