<svg width="165" height="168" viewBox="0 0 165 168" fill="none" xmlns="http://www.w3.org/2000/svg">
<path d="M81.9998 92.4841C81.1793 92.4815 80.3715 92.2918 79.6408 91.9274L24.9216 64.9504C22.3088 63.6574 21.2522 60.5192 22.5627 57.9405C23.8728 55.3617 27.0525 54.319 29.6654 55.6123L82.0001 81.4253L134.335 55.5871C136.948 54.294 140.127 55.3365 141.437 57.9152C142.748 60.494 141.691 63.6321 139.078 64.9252L84.3588 91.9274C83.6281 92.2918 82.8203 92.4815 81.9998 92.4841Z" fill="#FFB703"/>
<path d="M81.9998 120C81.1793 119.997 80.3715 119.804 79.6408 119.433L24.9216 91.9166C22.3088 90.599 21.2522 87.4011 22.5627 84.7733C23.8731 82.1455 27.0525 81.0829 29.6654 82.4009L82.0001 108.653L134.335 82.3492C136.948 81.0316 140.127 82.0939 141.437 84.7217C142.748 87.3495 141.691 90.5473 139.078 91.865L84.3593 119.433C83.6281 119.804 82.8203 119.997 81.9998 120Z" fill="#16DB93"/>
<path d="M81.9999 64.9681C81.1796 64.9655 80.3719 64.7742 79.6414 64.4067L24.9337 37.2037C22.3214 35.9124 21.255 32.7582 22.5521 30.1579C23.0649 29.1295 23.9006 28.2976 24.9337 27.7871L79.6414 0.558862C81.1334 -0.186287 82.8921 -0.186287 84.3841 0.558862L139.066 27.7874C141.679 29.0787 142.745 32.2328 141.448 34.8332C140.935 35.8615 140.099 36.6935 139.066 37.2039L84.3584 64.4322C83.6252 64.7894 82.8176 64.973 81.9999 64.9681ZM39.1362 32.4827L81.9999 53.8163L124.864 32.4827L81.9999 11.2256L39.1362 32.4827Z" fill="#219EBC"/>
<path d="M26.8361 149.8C26.8361 151.4 26.5695 152.893 26.0361 154.28C25.5028 155.667 24.7455 156.893 23.7641 157.96C22.8041 159.005 21.6521 159.827 20.3081 160.424C18.9855 161.021 17.5348 161.32 15.9561 161.32C14.3775 161.32 12.9268 161.021 11.6041 160.424C10.2815 159.827 9.12946 159.005 8.14813 157.96C7.18813 156.893 6.44146 155.667 5.90813 154.28C5.37479 152.893 5.10813 151.4 5.10813 149.8C5.10813 148.2 5.37479 146.707 5.90813 145.32C6.44146 143.933 7.18813 142.717 8.14813 141.672C9.12946 140.605 10.2815 139.773 11.6041 139.176C12.9268 138.579 14.3775 138.28 15.9561 138.28C17.5348 138.28 18.9855 138.579 20.3081 139.176C21.6521 139.773 22.8041 140.605 23.7641 141.672C24.7455 142.717 25.5028 143.933 26.0361 145.32C26.5695 146.707 26.8361 148.2 26.8361 149.8ZM22.6761 149.8C22.6761 148.371 22.3881 147.08 21.8121 145.928C21.2361 144.755 20.4468 143.827 19.4441 143.144C18.4415 142.461 17.2788 142.12 15.9561 142.12C14.6335 142.12 13.4708 142.461 12.4681 143.144C11.4655 143.827 10.6761 144.744 10.1001 145.896C9.54546 147.048 9.26813 148.349 9.26813 149.8C9.26813 151.229 9.54546 152.531 10.1001 153.704C10.6761 154.856 11.4655 155.773 12.4681 156.456C13.4708 157.139 14.6335 157.48 15.9561 157.48C17.2788 157.48 18.4415 157.139 19.4441 156.456C20.4468 155.773 21.2361 154.856 21.8121 153.704C22.3881 152.531 22.6761 151.229 22.6761 149.8ZM39.0534 143.56C40.5467 143.56 41.88 143.944 43.0534 144.712C44.248 145.459 45.1867 146.493 45.8694 147.816C46.5734 149.139 46.9254 150.675 46.9254 152.424C46.9254 154.173 46.5734 155.72 45.8694 157.064C45.1867 158.387 44.2587 159.432 43.0854 160.2C41.9334 160.947 40.632 161.32 39.1814 161.32C38.328 161.32 37.528 161.181 36.7814 160.904C36.0347 160.627 35.3734 160.275 34.7974 159.848C34.2427 159.421 33.8054 158.995 33.4854 158.568C33.1867 158.12 33.0374 157.747 33.0374 157.448L34.0294 157.032V165.448C34.0294 166.003 33.848 166.461 33.4854 166.824C33.1227 167.208 32.664 167.4 32.1094 167.4C31.5547 167.4 31.096 167.219 30.7334 166.856C30.3707 166.493 30.1894 166.024 30.1894 165.448V145.832C30.1894 145.277 30.3707 144.819 30.7334 144.456C31.096 144.072 31.5547 143.88 32.1094 143.88C32.664 143.88 33.1227 144.072 33.4854 144.456C33.848 144.819 34.0294 145.277 34.0294 145.832V147.4L33.4854 147.112C33.4854 146.835 33.6347 146.504 33.9334 146.12C34.232 145.715 34.6374 145.32 35.1494 144.936C35.6614 144.531 36.248 144.2 36.9094 143.944C37.592 143.688 38.3067 143.56 39.0534 143.56ZM38.5734 147.08C37.6347 147.08 36.8134 147.315 36.1094 147.784C35.4054 148.253 34.8507 148.893 34.4454 149.704C34.0614 150.493 33.8694 151.4 33.8694 152.424C33.8694 153.427 34.0614 154.344 34.4454 155.176C34.8507 155.987 35.4054 156.627 36.1094 157.096C36.8134 157.565 37.6347 157.8 38.5734 157.8C39.512 157.8 40.3227 157.565 41.0054 157.096C41.7094 156.627 42.2534 155.987 42.6374 155.176C43.0427 154.344 43.2454 153.427 43.2454 152.424C43.2454 151.4 43.0427 150.493 42.6374 149.704C42.2534 148.893 41.7094 148.253 41.0054 147.784C40.3227 147.315 39.512 147.08 38.5734 147.08ZM58.0309 161.32C56.2175 161.32 54.6389 160.947 53.2949 160.2C51.9722 159.432 50.9482 158.397 50.2229 157.096C49.5189 155.795 49.1669 154.323 49.1669 152.68C49.1669 150.76 49.5509 149.128 50.3189 147.784C51.1082 146.419 52.1322 145.373 53.3909 144.648C54.6495 143.923 55.9829 143.56 57.3909 143.56C58.4789 143.56 59.5029 143.784 60.4629 144.232C61.4442 144.68 62.3082 145.299 63.0549 146.088C63.8015 146.856 64.3882 147.752 64.8149 148.776C65.2629 149.8 65.4869 150.888 65.4869 152.04C65.4655 152.552 65.2629 152.968 64.8789 153.288C64.4949 153.608 64.0469 153.768 63.5349 153.768H51.3109L50.3509 150.568H62.0949L61.3909 151.208V150.344C61.3482 149.725 61.1242 149.171 60.7189 148.68C60.3349 148.189 59.8442 147.805 59.2469 147.528C58.6709 147.229 58.0522 147.08 57.3909 147.08C56.7509 147.08 56.1535 147.165 55.5989 147.336C55.0442 147.507 54.5642 147.795 54.1589 148.2C53.7535 148.605 53.4335 149.149 53.1989 149.832C52.9642 150.515 52.8469 151.379 52.8469 152.424C52.8469 153.576 53.0815 154.557 53.5509 155.368C54.0415 156.157 54.6602 156.765 55.4069 157.192C56.1749 157.597 56.9855 157.8 57.8389 157.8C58.6282 157.8 59.2575 157.736 59.7269 157.608C60.1962 157.48 60.5695 157.331 60.8469 157.16C61.1455 156.968 61.4122 156.808 61.6469 156.68C62.0309 156.488 62.3935 156.392 62.7349 156.392C63.2042 156.392 63.5882 156.552 63.8869 156.872C64.2069 157.192 64.3669 157.565 64.3669 157.992C64.3669 158.568 64.0682 159.091 63.4709 159.56C62.9162 160.029 62.1375 160.445 61.1349 160.808C60.1322 161.149 59.0975 161.32 58.0309 161.32ZM77.8414 143.56C79.42 143.56 80.6147 143.891 81.4254 144.552C82.2574 145.213 82.8227 146.099 83.1214 147.208C83.4414 148.296 83.6014 149.512 83.6014 150.856V159.048C83.6014 159.603 83.42 160.072 83.0574 160.456C82.6947 160.819 82.236 161 81.6814 161C81.1267 161 80.668 160.819 80.3054 160.456C79.9427 160.072 79.7614 159.603 79.7614 159.048V150.856C79.7614 150.152 79.6654 149.523 79.4734 148.968C79.3027 148.392 78.9827 147.933 78.5134 147.592C78.044 147.251 77.372 147.08 76.4974 147.08C75.644 147.08 74.9187 147.251 74.3214 147.592C73.7454 147.933 73.2974 148.392 72.9774 148.968C72.6787 149.523 72.5294 150.152 72.5294 150.856V159.048C72.5294 159.603 72.348 160.072 71.9854 160.456C71.6227 160.819 71.164 161 70.6094 161C70.0547 161 69.596 160.819 69.2334 160.456C68.8707 160.072 68.6894 159.603 68.6894 159.048V145.832C68.6894 145.277 68.8707 144.819 69.2334 144.456C69.596 144.072 70.0547 143.88 70.6094 143.88C71.164 143.88 71.6227 144.072 71.9854 144.456C72.348 144.819 72.5294 145.277 72.5294 145.832V147.208L72.0494 147.112C72.2414 146.749 72.5187 146.365 72.8814 145.96C73.244 145.533 73.6707 145.139 74.1614 144.776C74.652 144.413 75.2067 144.125 75.8254 143.912C76.444 143.677 77.116 143.56 77.8414 143.56Z" fill="#EEEEEE"/>
<path d="M113.256 138.504C113.747 138.504 114.216 138.696 114.664 139.08C115.112 139.443 115.336 139.944 115.336 140.584C115.336 140.776 115.304 140.989 115.24 141.224L108.936 159.784C108.808 160.168 108.573 160.467 108.232 160.68C107.912 160.872 107.571 160.979 107.208 161C106.845 161 106.483 160.893 106.12 160.68C105.779 160.467 105.512 160.157 105.32 159.752L100.584 149L100.872 149.192L96.1999 159.752C96.0079 160.157 95.7305 160.467 95.3679 160.68C95.0265 160.893 94.6745 161 94.3119 161C93.9705 160.979 93.6292 160.872 93.2879 160.68C92.9465 160.467 92.7119 160.168 92.5839 159.784L86.2799 141.224C86.2159 140.989 86.1839 140.776 86.1839 140.584C86.1839 139.944 86.4079 139.443 86.8559 139.08C87.3252 138.696 87.8052 138.504 88.2959 138.504C88.7012 138.504 89.0745 138.611 89.4159 138.824C89.7785 139.037 90.0239 139.347 90.1519 139.752L95.2399 155.176L94.5359 155.144L99.0799 144.232C99.2505 143.848 99.4959 143.549 99.8159 143.336C100.136 143.101 100.499 142.995 100.904 143.016C101.309 142.995 101.672 143.101 101.992 143.336C102.312 143.549 102.547 143.848 102.696 144.232L106.856 154.664L106.344 154.984L111.368 139.752C111.496 139.347 111.741 139.037 112.104 138.824C112.467 138.611 112.851 138.504 113.256 138.504Z" fill="#219EBC"/>
<path d="M120.275 138.568C120.574 138.568 120.883 138.653 121.203 138.824C121.545 138.973 121.801 139.176 121.971 139.432L129.747 151.4L128.147 151.336L136.115 139.432C136.521 138.856 137.043 138.568 137.683 138.568C138.195 138.568 138.654 138.749 139.059 139.112C139.465 139.475 139.667 139.944 139.667 140.52V159.048C139.667 159.603 139.486 160.072 139.123 160.456C138.761 160.819 138.281 161 137.683 161C137.086 161 136.595 160.819 136.211 160.456C135.849 160.072 135.667 159.603 135.667 159.048V143.976L136.915 144.264L130.387 154.216C130.195 154.451 129.95 154.653 129.651 154.824C129.374 154.995 129.086 155.069 128.787 155.048C128.51 155.069 128.222 154.995 127.923 154.824C127.646 154.653 127.411 154.451 127.219 154.216L121.107 144.552L121.939 142.856V159.048C121.939 159.603 121.769 160.072 121.427 160.456C121.086 160.819 120.638 161 120.083 161C119.55 161 119.113 160.819 118.771 160.456C118.43 160.072 118.259 159.603 118.259 159.048V140.52C118.259 139.987 118.451 139.528 118.835 139.144C119.241 138.76 119.721 138.568 120.275 138.568Z" fill="#FFB703"/>
<path d="M151.678 161.32C150.185 161.32 148.841 161.139 147.646 160.776C146.451 160.392 145.31 159.731 144.222 158.792C143.945 158.557 143.731 158.291 143.582 157.992C143.433 157.693 143.358 157.395 143.358 157.096C143.358 156.605 143.529 156.179 143.87 155.816C144.233 155.432 144.681 155.24 145.214 155.24C145.619 155.24 145.982 155.368 146.302 155.624C147.113 156.285 147.913 156.787 148.702 157.128C149.513 157.469 150.505 157.64 151.678 157.64C152.467 157.64 153.193 157.523 153.854 157.288C154.515 157.032 155.049 156.701 155.454 156.296C155.859 155.869 156.062 155.389 156.062 154.856C156.062 154.216 155.87 153.672 155.486 153.224C155.102 152.776 154.515 152.403 153.726 152.104C152.937 151.784 151.934 151.539 150.718 151.368C149.566 151.197 148.553 150.941 147.678 150.6C146.803 150.237 146.067 149.789 145.47 149.256C144.894 148.701 144.457 148.061 144.158 147.336C143.859 146.589 143.71 145.757 143.71 144.84C143.71 143.453 144.062 142.269 144.766 141.288C145.491 140.307 146.462 139.56 147.678 139.048C148.894 138.536 150.238 138.28 151.71 138.28C153.097 138.28 154.377 138.493 155.55 138.92C156.745 139.325 157.715 139.848 158.462 140.488C159.081 140.979 159.39 141.544 159.39 142.184C159.39 142.653 159.209 143.08 158.846 143.464C158.483 143.848 158.057 144.04 157.566 144.04C157.246 144.04 156.958 143.944 156.702 143.752C156.361 143.453 155.902 143.176 155.326 142.92C154.75 142.643 154.142 142.419 153.502 142.248C152.862 142.056 152.265 141.96 151.71 141.96C150.793 141.96 150.014 142.077 149.374 142.312C148.755 142.547 148.286 142.867 147.966 143.272C147.646 143.677 147.486 144.147 147.486 144.68C147.486 145.32 147.667 145.853 148.03 146.28C148.414 146.685 148.958 147.016 149.662 147.272C150.366 147.507 151.209 147.72 152.19 147.912C153.47 148.147 154.59 148.424 155.55 148.744C156.531 149.064 157.342 149.48 157.982 149.992C158.622 150.483 159.102 151.112 159.422 151.88C159.742 152.627 159.902 153.544 159.902 154.632C159.902 156.019 159.518 157.213 158.75 158.216C157.982 159.219 156.969 159.987 155.71 160.52C154.473 161.053 153.129 161.32 151.678 161.32Z" fill="#16DB93"/>
</svg>
