<svg width="1448" height="868" viewBox="0 0 1448 868" fill="none" xmlns="http://www.w3.org/2000/svg">
  <path
    d="M1585.39 473.401C1459.5 712.5 1666.5 958.5 1133.89 868.401C824.888 868.401 0.5 1065.01 0.5 868.401C145 364.901 566.997 278 876 278C1181.5 -117 1899.68 -123.518 1585.39 473.401Z"
    fill="#35596C" />
  <g clip-path="url(#clip0)">
    <path
      d="M1153.15 558.432L1159.06 554.783C1159.62 554.427 1160.18 554.047 1160.75 553.691C1148.06 551.51 1136.5 545.063 1127.98 535.418C1119.45 525.774 1114.48 513.509 1113.88 500.654C1113.45 491.814 1115.12 482.996 1118.76 474.928C1122.15 467.379 1127.16 460.665 1133.43 455.26C1139.69 449.854 1147.07 445.889 1155.04 443.644L1154.75 466.917L1167.54 441.586C1167.59 441.578 1167.64 441.578 1167.69 441.586C1175.11 441.24 1182.51 442.357 1189.49 444.872C1196.47 447.388 1202.89 451.253 1208.37 456.247C1213.86 461.241 1218.31 467.266 1221.46 473.978C1224.62 480.691 1226.42 487.958 1226.77 495.366C1226.81 496.443 1226.77 497.504 1226.77 498.533C1231.22 493.459 1235.25 488.021 1237.93 482.06C1243.35 469.988 1243.48 456.318 1243.02 439.702C1242.17 406.772 1240.75 373.597 1238.9 340.516C1225.54 339.034 1213.16 332.84 1203.96 323.048C1194.77 313.256 1189.36 300.507 1188.73 287.092C1188.65 285.359 1188.67 283.657 1188.73 281.963C1188.73 281.543 1188.73 281.116 1188.79 280.696C1188.9 279.057 1189.05 277.435 1189.31 275.836C1189.31 275.567 1189.4 275.313 1189.45 275.044C1189.68 273.688 1189.96 272.347 1190.28 271.023C1190.41 270.532 1190.53 270.033 1190.66 269.543C1191.06 268.102 1191.45 266.685 1192 265.284C1192.17 264.817 1192.36 264.366 1192.54 263.907C1192.94 262.877 1193.38 261.864 1193.84 260.859C1194.08 260.329 1194.32 259.806 1194.58 259.276C1194.64 259.141 1194.7 259.007 1194.77 258.872C1200.73 247.1 1210.63 237.788 1222.75 232.556C1234.87 227.324 1248.44 226.502 1261.1 230.232L1260.72 260.519L1273.39 235.504C1283.79 241.451 1292.01 250.563 1296.85 261.511C1301.7 272.458 1302.91 284.667 1300.32 296.354H1300.38C1300.3 296.757 1300.17 297.145 1300.07 297.541C1299.9 298.285 1299.71 299.021 1299.5 299.757C1299.24 300.699 1298.93 301.626 1298.63 302.552C1298.39 303.24 1298.16 303.945 1297.9 304.626C1297.52 305.623 1297.11 306.597 1296.65 307.57C1296.39 308.14 1296.16 308.718 1295.85 309.28C1295.13 310.737 1294.34 312.162 1293.48 313.555C1293.18 314.038 1292.85 314.497 1292.54 314.98C1291.94 315.914 1291.33 316.84 1290.67 317.742C1290.27 318.296 1289.84 318.827 1289.41 319.373C1288.79 320.165 1288.16 320.956 1287.5 321.677C1287.03 322.207 1286.56 322.729 1286.07 323.26C1285.38 323.988 1284.66 324.692 1283.93 325.389C1283.44 325.856 1282.95 326.323 1282.45 326.766C1281.61 327.503 1280.74 328.207 1279.86 328.896C1279.42 329.244 1278.99 329.608 1278.53 329.941C1277.2 330.933 1275.82 331.864 1274.39 332.735C1274.12 332.893 1273.84 333.028 1273.6 333.186C1272.41 333.891 1271.22 334.548 1269.95 335.165C1269.42 335.426 1268.86 335.656 1268.32 335.901C1267.3 336.36 1266.27 336.804 1265.21 337.207C1264.6 337.437 1263.98 337.651 1263.35 337.864C1262.32 338.221 1261.26 338.545 1260.18 338.838C1259.55 339.012 1258.93 339.186 1258.28 339.337C1257.13 339.614 1255.95 339.843 1254.76 340.041C1254.68 340.041 1254.61 340.041 1254.53 340.089C1255.31 354.042 1256.01 368.003 1256.61 381.972C1259.98 375.06 1264.73 368.909 1270.56 363.896C1276.39 358.883 1283.19 355.113 1290.53 352.819C1297.87 350.525 1305.6 349.755 1313.25 350.555C1320.9 351.355 1328.31 353.709 1335.02 357.472L1325.03 384.821L1345.57 365.103C1356.57 375.178 1363.12 389.201 1363.79 404.097C1364.05 409.323 1363.56 414.56 1362.35 419.651C1359.77 430.668 1353.94 440.655 1345.61 448.318C1337.28 455.98 1326.84 460.963 1315.64 462.621C1304.44 464.279 1293.01 462.535 1282.81 457.616C1272.62 452.696 1264.14 444.828 1258.47 435.032C1258.47 436.449 1258.58 437.874 1258.62 439.29C1258.99 453.951 1259.46 472.189 1252.15 488.48C1247.2 499.522 1239.22 508.491 1231.34 516.526C1226.22 521.758 1220.9 526.816 1215.46 531.716C1210.1 538.907 1203.11 544.719 1195.06 548.672C1186.11 555.564 1176.84 562.018 1167.26 568.034L1161.44 571.786C1156.06 575.119 1150.55 578.538 1145.14 582.077C1146.09 581.982 1147.03 581.879 1148 581.839C1159.97 581.279 1171.81 584.537 1181.81 591.143C1191.81 597.75 1199.45 607.363 1203.62 618.593L1168.32 647.319L1207.13 638.319C1207.11 647.869 1204.68 657.26 1200.06 665.615C1195.43 673.97 1188.76 681.016 1180.67 686.096C1172.58 691.176 1163.33 694.123 1153.8 694.662C1144.26 695.201 1134.74 693.314 1126.13 689.179C1127 690.271 1127.88 691.355 1128.75 692.44C1130.48 694.601 1132.21 696.746 1133.89 698.876C1156.86 727.951 1163.26 755.561 1151.88 776.609L1138.05 769.137C1149.14 748.65 1132.51 722.433 1121.56 708.612C1119.9 706.522 1118.21 704.417 1116.5 702.279C1101.82 684.073 1085.19 663.397 1085.61 638.058C1086.2 599.903 1123.34 576.892 1153.15 558.432Z"
      fill="#F2F2F2" />
    <path
      d="M972.727 785C1171.95 785 1333.45 777.557 1333.45 768.377C1333.45 759.196 1171.95 751.753 972.727 751.753C773.503 751.753 612 759.196 612 768.377C612 777.557 773.503 785 972.727 785Z"
      fill="#3F3D56" />
    <path
      d="M1264.15 762.179C1266.53 757.817 1263.84 752.474 1260.76 748.579C1257.69 744.685 1253.94 740.663 1254.02 735.684C1254.13 728.56 1261.7 724.357 1267.75 720.581C1272.23 717.776 1276.36 714.452 1280.06 710.678C1281.62 709.226 1282.9 707.511 1283.86 705.612C1285.1 702.825 1285.07 699.659 1284.99 696.604C1284.72 686.44 1284.22 676.286 1283.48 666.143"
      stroke="#3F3D56" stroke-width="4" stroke-miterlimit="10" />
    <path
      d="M1294.97 665.605C1294.89 663.745 1294.33 661.937 1293.36 660.347C1292.4 658.757 1291.04 657.434 1289.43 656.502L1286.94 661.425L1287.02 655.473C1285.31 654.963 1283.52 654.87 1281.77 655.2C1280.03 655.53 1278.39 656.274 1276.99 657.369C1275.59 658.464 1274.48 659.879 1273.74 661.494C1273.01 663.109 1272.67 664.877 1272.76 666.65C1272.9 669.589 1274.2 672.353 1276.38 674.333C1277.46 675.314 1278.72 676.072 1280.09 676.566C1281.46 677.059 1282.91 677.278 1284.37 677.209C1285.83 677.141 1287.25 676.786 1288.57 676.166C1289.89 675.546 1291.08 674.672 1292.06 673.594C1293.04 672.517 1293.8 671.256 1294.29 669.886C1294.78 668.515 1295 667.06 1294.94 665.605H1294.97Z"
      fill="#57B793" />
    <path
      d="M1275.15 740.806C1273.99 743.066 1272.08 744.857 1269.76 745.879C1267.43 746.902 1264.82 747.093 1262.37 746.422C1259.91 745.751 1257.77 744.257 1256.29 742.192C1254.8 740.126 1254.08 737.615 1254.23 735.077C1254.38 732.54 1255.4 730.132 1257.11 728.256C1258.83 726.38 1261.14 725.151 1263.65 724.774C1266.17 724.397 1268.73 724.895 1270.92 726.185C1273.11 727.476 1274.79 729.479 1275.68 731.861L1268.75 737.505L1276.38 735.732C1276.38 737.497 1275.96 739.236 1275.15 740.806V740.806Z"
      fill="#57B793" />
    <path
      d="M1269.66 719.203C1268.21 719.273 1266.75 719.055 1265.37 718.561C1264 718.066 1262.74 717.305 1261.66 716.322C1260.58 715.339 1259.71 714.152 1259.09 712.83C1258.47 711.509 1258.12 710.078 1258.05 708.62C1257.97 706.881 1258.29 705.147 1259.01 703.561C1259.68 702.077 1260.66 700.756 1261.89 699.692C1263.12 698.628 1264.57 697.846 1266.14 697.403L1266.08 701.986L1268.6 696.999C1271.55 696.862 1274.43 697.899 1276.61 699.884C1278.79 701.869 1280.09 704.638 1280.23 707.583C1280.37 710.527 1279.33 713.406 1277.34 715.585C1275.36 717.764 1272.59 719.066 1269.64 719.203H1269.66Z"
      fill="#57B793" />
    <path
      d="M1296.65 701.226C1293.71 701.365 1290.83 700.33 1288.65 698.35C1286.48 696.37 1285.17 693.606 1285.04 690.667C1284.9 687.727 1285.93 684.854 1287.91 682.677C1289.89 680.501 1292.66 679.2 1295.6 679.062C1297.68 678.96 1299.74 679.448 1301.56 680.471L1299.59 685.854L1303.63 681.975C1305.8 683.955 1307.09 686.714 1307.23 689.645C1307.28 690.672 1307.18 691.701 1306.94 692.701C1306.39 695.048 1305.08 697.151 1303.22 698.689C1301.37 700.228 1299.06 701.119 1296.65 701.226V701.226Z"
      fill="#57B793" />
    <path opacity="0.1"
      d="M1293.48 668.534C1290.91 668.819 1288.42 669.618 1285.84 669.777C1283.27 669.935 1280.44 669.317 1278.81 667.315C1277.93 666.238 1277.5 664.877 1276.75 663.705C1276.05 662.61 1275.09 661.705 1273.96 661.069C1273.29 662.47 1272.92 663.997 1272.88 665.549C1272.83 667.102 1273.12 668.646 1273.71 670.082C1274.3 671.517 1275.19 672.812 1276.32 673.883C1277.44 674.953 1278.78 675.775 1280.25 676.295C1281.71 676.815 1283.27 677.021 1284.82 676.9C1286.37 676.78 1287.87 676.335 1289.24 675.595C1290.61 674.855 1291.8 673.836 1292.75 672.605C1293.7 671.373 1294.37 669.957 1294.74 668.447C1294.31 668.463 1293.89 668.494 1293.48 668.534Z"
      fill="black" />
    <path opacity="0.1"
      d="M1296.65 701.226C1294.73 701.323 1292.82 700.922 1291.1 700.06C1289.39 699.198 1287.93 697.907 1286.86 696.311C1285.8 694.715 1285.16 692.87 1285.03 690.957C1284.89 689.043 1285.25 687.127 1286.07 685.395C1286.96 685.99 1287.71 686.751 1288.31 687.635C1289.1 688.83 1289.57 690.207 1290.51 691.308C1292.23 693.342 1295.2 694.007 1297.88 693.88C1300.57 693.754 1303.15 693.002 1305.8 692.756C1306.16 692.756 1306.54 692.693 1306.92 692.685C1306.37 695.031 1305.07 697.135 1303.21 698.676C1301.36 700.217 1299.05 701.113 1296.65 701.226Z"
      fill="black" />
    <path opacity="0.1"
      d="M1269.66 719.203C1268.21 719.273 1266.75 719.055 1265.37 718.561C1264 718.066 1262.74 717.306 1261.66 716.322C1260.58 715.339 1259.71 714.152 1259.09 712.83C1258.47 711.509 1258.12 710.078 1258.05 708.62C1257.97 706.881 1258.29 705.147 1259.01 703.562C1259.93 704.164 1260.74 704.928 1261.39 705.818C1262.25 707.037 1262.79 708.438 1263.76 709.562C1265.64 711.652 1268.79 712.388 1271.64 712.316C1274.48 712.245 1277.04 711.58 1279.78 711.374C1279.1 713.56 1277.77 715.484 1275.96 716.885C1274.15 718.286 1271.95 719.096 1269.66 719.203Z"
      fill="black" />
    <path opacity="0.1"
      d="M1275.15 740.806C1274.55 742.136 1273.7 743.335 1272.64 744.335C1271.58 745.335 1270.33 746.116 1268.96 746.634C1267.6 747.152 1266.15 747.396 1264.69 747.353C1263.23 747.31 1261.8 746.98 1260.47 746.382C1259.14 745.785 1257.94 744.931 1256.93 743.87C1255.93 742.808 1255.15 741.561 1254.63 740.197C1254.12 738.834 1253.87 737.382 1253.92 735.925C1253.96 734.467 1254.29 733.032 1254.89 731.702C1255.8 732.309 1256.62 733.041 1257.33 733.879C1258.38 735.17 1259.08 736.626 1260.3 737.837C1262.58 740.062 1266.24 741.004 1269.51 741.067C1271.39 741.092 1273.28 741.004 1275.15 740.806V740.806Z"
      fill="black" />
    <path
      d="M1247.4 757.152C1247.4 757.152 1256.16 756.883 1258.81 754.999C1261.45 753.115 1272.27 750.867 1272.96 753.891C1273.65 756.914 1286.14 768.931 1276.24 768.978C1266.33 769.026 1253.22 767.395 1250.59 765.812C1247.95 764.229 1247.4 757.152 1247.4 757.152Z"
      fill="#656380" />
    <path opacity="0.2"
      d="M1276.41 767.926C1266.51 768.005 1253.4 766.342 1250.76 764.759C1248.76 763.54 1247.95 759.147 1247.69 757.12H1247.4C1247.4 757.12 1247.95 764.189 1250.56 765.828C1253.18 767.466 1266.31 769.057 1276.21 768.994C1279.07 768.994 1280.06 767.949 1280.01 766.445C1279.63 767.34 1278.54 767.91 1276.41 767.926Z"
      fill="black" />
    <path
      d="M765.961 737.758C760.211 727.119 766.752 714.09 774.228 704.606C781.704 695.123 790.859 685.26 790.661 673.173C790.376 655.805 771.94 645.554 757.21 636.348C746.279 629.516 736.196 621.414 727.171 612.212C723.552 608.516 720.044 604.574 717.937 599.856C714.896 593.064 714.976 585.346 715.174 577.905C715.807 553.102 717.032 528.346 718.848 503.638"
      stroke="#3F3D56" stroke-width="4" stroke-miterlimit="10" />
    <path
      d="M690.837 502.285C691.054 497.754 692.406 493.35 694.77 489.477C697.133 485.604 700.432 482.387 704.364 480.12L710.43 492.113L710.248 477.595C715.759 475.972 721.643 476.142 727.052 478.079C732.46 480.017 737.112 483.623 740.337 488.376C743.562 493.129 745.191 498.783 744.991 504.522C744.791 510.262 742.771 515.789 739.224 520.306C735.676 524.823 730.784 528.096 725.253 529.653C719.723 531.209 713.841 530.969 708.456 528.966C703.072 526.963 698.463 523.302 695.296 518.51C692.129 513.719 690.568 508.045 690.837 502.309V502.285Z"
      fill="#57B793" />
    <path
      d="M739.161 685.585C741.886 690.892 746.287 695.151 751.682 697.7C757.077 700.25 763.164 700.947 768.996 699.683C774.828 698.42 780.079 695.266 783.934 690.713C787.789 686.159 790.031 680.461 790.313 674.502C790.502 670.757 789.9 667.013 788.547 663.515C786.568 658.384 783.074 653.977 778.529 650.879C773.985 647.781 768.604 646.139 763.103 646.17C757.602 646.202 752.241 647.907 747.733 651.057C743.224 654.207 739.782 658.655 737.863 663.808L754.786 677.566L736.168 673.236C736.16 677.532 737.187 681.768 739.161 685.585Z"
      fill="#57B793" />
    <path
      d="M752.537 633.008C759.181 633.311 765.705 631.162 770.866 626.969C776.028 622.777 779.467 616.833 780.528 610.27C781.589 603.708 780.199 596.984 776.622 591.379C773.045 585.775 767.531 581.68 761.13 579.876L761.272 591.03L755.174 578.895H755.103C747.923 578.56 740.904 581.09 735.59 585.928C730.276 590.766 727.103 597.516 726.768 604.692C726.433 611.869 728.964 618.885 733.804 624.197C738.644 629.508 745.397 632.681 752.577 633.015L752.537 633.008Z"
      fill="#57B793" />
    <path
      d="M686.759 589.256C690.954 589.461 695.139 588.688 698.984 586.998C702.829 585.308 706.228 582.749 708.914 579.521C711.599 576.293 713.498 572.486 714.459 568.399C715.42 564.312 715.417 560.058 714.452 555.972C713.486 551.887 711.584 548.081 708.894 544.856C706.205 541.632 702.803 539.076 698.956 537.391C695.109 535.705 690.923 534.937 686.728 535.146C682.534 535.355 678.445 536.536 674.785 538.595L679.536 551.711L669.724 542.236C667.101 544.622 664.975 547.502 663.466 550.71C661.958 553.918 661.097 557.392 660.934 560.933C660.808 563.439 661.04 565.95 661.623 568.39C662.97 574.129 666.153 579.271 670.69 583.037C675.226 586.803 680.868 588.987 686.759 589.256V589.256Z"
      fill="#57B793" />
    <path opacity="0.1"
      d="M694.48 509.504C700.737 510.193 706.819 512.132 713.091 512.52C719.363 512.908 726.261 511.412 730.228 506.536C732.367 503.908 733.436 500.583 735.241 497.717C736.952 495.047 739.297 492.842 742.068 491.298C743.793 494.73 744.768 498.49 744.928 502.328C745.088 506.166 744.43 509.995 742.997 513.559C741.564 517.123 739.389 520.342 736.616 523.002C733.843 525.662 730.536 527.701 726.914 528.986C723.293 530.271 719.439 530.771 715.609 530.453C711.779 530.135 708.061 529.006 704.7 527.142C701.34 525.278 698.415 522.721 696.119 519.64C693.823 516.56 692.209 513.026 691.384 509.275C692.437 509.322 693.467 509.393 694.48 509.504Z"
      fill="black" />
    <path opacity="0.1"
      d="M686.759 589.256C691.428 589.472 696.074 588.476 700.246 586.368C704.417 584.259 707.972 581.108 710.566 577.221C713.16 573.334 714.704 568.843 715.05 564.183C715.395 559.523 714.529 554.854 712.536 550.627C710.385 552.073 708.535 553.923 707.088 556.073C705.156 558.986 703.991 562.35 701.719 565.026C697.498 569.981 690.291 571.604 683.75 571.311C677.208 571.018 670.896 569.15 664.387 568.556C663.484 568.477 662.565 568.414 661.654 568.39C663 574.124 666.179 579.263 670.709 583.028C675.239 586.793 680.874 588.98 686.759 589.256V589.256Z"
      fill="black" />
    <path opacity="0.1"
      d="M752.537 633.007C757.161 633.224 761.764 632.254 765.906 630.187C770.048 628.121 773.591 625.029 776.197 621.205C778.804 617.381 780.387 612.953 780.795 608.344C781.203 603.735 780.423 599.099 778.529 594.877C776.297 596.358 774.357 598.236 772.803 600.418C770.696 603.386 769.382 606.806 766.919 609.545C762.349 614.635 754.668 616.432 747.738 616.265C741.03 616.123 734.568 614.476 727.9 613.962C729.551 619.282 732.802 623.965 737.21 627.373C741.618 630.781 746.97 632.748 752.537 633.007V633.007Z"
      fill="black" />
    <path opacity="0.1"
      d="M739.161 685.585C741.886 690.892 746.287 695.151 751.682 697.7C757.077 700.25 763.164 700.947 768.996 699.683C774.828 698.42 780.079 695.266 783.934 690.713C787.789 686.159 790.031 680.461 790.313 674.502C790.502 670.757 789.9 667.013 788.547 663.515C786.317 664.979 784.316 666.763 782.607 668.811C780.033 671.977 778.331 675.508 775.353 678.437C769.809 683.867 760.868 686.115 752.909 686.352C748.316 686.368 743.725 686.112 739.161 685.585V685.585Z"
      fill="black" />
    <path
      d="M953.499 753.574L848.964 774.947L846.588 774.709L754.723 765.448V649.085L867.178 630.086L948.748 639.585L948.771 640.1L948.779 640.353L953.499 753.574Z"
      fill="#16DB93" />
    <path opacity="0.1" d="M953.499 753.574L848.964 774.947L846.588 774.709V655.417L948.771 640.1L953.499 753.574Z"
      fill="black" />
    <path opacity="0.05"
      d="M948.779 640.353L948.748 640.377L846.588 655.417L754.723 649.085L867.178 630.086L948.748 639.585L948.771 640.1L948.779 640.353Z"
      fill="black" />
    <path
      d="M1068.33 758.323L963.794 779.696L961.419 779.459L869.554 770.197V653.834L982.009 634.836L1063.58 644.335L1063.6 644.849L1063.61 645.103L1068.33 758.323Z"
      fill="#3F3D56" />
    <path opacity="0.1" d="M1068.33 758.324L963.794 779.696L961.419 779.459V660.167L1063.6 644.85L1068.33 758.324Z"
      fill="black" />
    <path opacity="0.05"
      d="M1063.61 645.103L1063.58 645.127L961.419 660.167L869.554 653.834L982.009 634.836L1063.58 644.335L1063.6 644.849L1063.61 645.103Z"
      fill="black" />
    <path
      d="M996.264 644.335L891.728 665.708L889.352 665.47L797.488 656.209V539.845L909.943 520.847L991.512 530.346L991.536 530.861L991.544 531.114L996.264 644.335Z"
      fill="#3F3D56" />
    <path opacity="0.1" d="M996.264 644.335L891.728 665.708L889.352 665.47V546.178L991.536 530.861L996.264 644.335Z"
      fill="black" />
    <path opacity="0.05"
      d="M991.544 531.114L991.512 531.138L889.352 546.178L797.488 539.845L909.943 520.847L991.512 530.346L991.536 530.861L991.544 531.114Z"
      fill="black" />
    <path
      d="M1055.66 649.211L1001.1 660.373L999.859 660.246L951.915 655.409V594.679L1010.61 584.76L1053.18 589.723L1053.2 589.993V590.119L1055.66 649.211Z"
      fill="#3F3D56" />
    <path opacity="0.1" d="M1055.66 649.211L1001.1 660.373L999.859 660.246V597.988L1053.2 589.993L1055.66 649.211Z"
      fill="black" />
    <path opacity="0.05"
      d="M1053.2 590.119L1053.18 590.135L999.859 597.988L951.915 594.679L1010.61 584.76L1053.18 589.723L1053.2 589.993V590.119Z"
      fill="black" />
    <path
      d="M909.151 531.265L854.594 542.418L853.351 542.299L805.407 537.463V476.732L864.097 466.814L906.672 471.777L906.688 472.046V472.173L909.151 531.265Z"
      fill="#3F3D56" />
    <path opacity="0.1" d="M909.151 531.265L854.594 542.418L853.351 542.299V480.041L906.688 472.046L909.151 531.265Z"
      fill="black" />
    <path opacity="0.05"
      d="M906.688 472.173L906.672 472.189L853.351 480.041L805.407 476.732L864.097 466.814L906.672 471.777L906.688 472.046V472.173Z"
      fill="black" />
    <path
      d="M1004.98 528.89L950.419 540.043L949.175 539.925L901.231 535.088V474.358L959.922 464.439L1002.5 469.402L1002.51 469.671V469.798L1004.98 528.89Z"
      fill="#16DB93" />
    <path opacity="0.1" d="M1004.98 528.89L950.419 540.043L949.175 539.925V477.666L1002.51 469.671L1004.98 528.89Z"
      fill="black" />
    <path opacity="0.05"
      d="M1002.51 469.798L1002.5 469.814L949.175 477.666L901.231 474.358L959.922 464.439L1002.5 469.402L1002.51 469.671V469.798Z"
      fill="black" />
    <path
      d="M1033.48 467.938L978.928 479.091L977.685 478.973L929.741 474.136V413.405L988.432 403.487L1031.01 408.45L1031.02 408.719V408.846L1033.48 467.938Z"
      fill="#3F3D56" />
    <path opacity="0.1" d="M1033.48 467.938L978.928 479.091L977.685 478.973V416.714L1031.02 408.719L1033.48 467.938Z"
      fill="black" />
    <path opacity="0.05"
      d="M1031.02 408.846L1031.01 408.862L977.685 416.714L929.741 413.405L988.432 403.487L1031.01 408.45L1031.02 408.719V408.846Z"
      fill="black" />
    <path
      d="M1070.64 343.785C1070.06 348.931 1066.14 353.079 1064.68 358.034C1062.49 365.514 1066.26 373.549 1071.46 379.407C1075.65 384.061 1080.71 387.839 1086.37 390.521C1092.03 393.203 1098.16 394.737 1104.42 395.033C1106.26 395.191 1108.11 394.989 1109.87 394.439C1111.43 393.801 1112.85 392.835 1114.01 391.605C1117.91 387.687 1120 382.264 1120.84 376.795C1121.67 371.325 1121.35 365.76 1121.03 360.243C1121.03 359.101 1120.82 357.969 1120.41 356.902C1119.88 355.888 1119.15 354.991 1118.26 354.266C1115.45 351.686 1112.36 349.436 1109.04 347.561C1107.61 346.77 1106.08 345.978 1105.17 344.609C1104.55 343.518 1104.14 342.316 1103.98 341.07L1102.95 335.877C1102.77 334.38 1102.26 332.942 1101.46 331.666C1099.66 329.244 1096.21 328.912 1093.2 328.793L1082.11 328.357C1078.66 328.223 1074.14 327.233 1070.77 327.914C1067.6 328.539 1068.67 331.437 1069.24 334.065C1070.07 337.243 1070.54 340.503 1070.64 343.785V343.785Z"
      fill="#FFC0C6" />
    <path opacity="0.1"
      d="M1070.64 343.785C1070.06 348.931 1066.14 353.079 1064.68 358.034C1062.49 365.514 1066.26 373.549 1071.46 379.407C1075.65 384.061 1080.71 387.839 1086.37 390.521C1092.03 393.203 1098.16 394.737 1104.42 395.033C1106.26 395.191 1108.11 394.989 1109.87 394.439C1111.43 393.801 1112.85 392.835 1114.01 391.605C1117.91 387.687 1120 382.264 1120.84 376.795C1121.67 371.325 1121.35 365.76 1121.03 360.243C1121.03 359.101 1120.82 357.969 1120.41 356.902C1119.88 355.888 1119.15 354.991 1118.26 354.266C1115.45 351.686 1112.36 349.436 1109.04 347.561C1107.61 346.77 1106.08 345.978 1105.17 344.609C1104.55 343.518 1104.14 342.316 1103.98 341.07L1102.95 335.877C1102.77 334.38 1102.26 332.942 1101.46 331.666C1099.66 329.244 1096.21 328.912 1093.2 328.793L1082.11 328.357C1078.66 328.223 1074.14 327.233 1070.77 327.914C1067.6 328.539 1068.67 331.437 1069.24 334.065C1070.07 337.243 1070.54 340.503 1070.64 343.785V343.785Z"
      fill="black" />
    <path
      d="M1141.05 575.53L1136.35 627.079C1135.12 640.599 1133.87 654.175 1131.46 667.521C1130.67 672.12 1129.66 676.695 1128.5 681.231C1125.29 693.825 1120.62 706.134 1119.12 719.045C1119.07 719.417 1119.03 719.837 1118.99 720.177C1118.68 723.027 1118.41 725.908 1117.41 728.568C1116.61 730.539 1115.5 732.336 1114.68 734.283C1113.1 738.178 1112.84 742.484 1112.65 746.703C1106.94 743.482 1100.69 741.335 1094.2 740.37C1091.03 739.903 1087.59 739.579 1085.49 737.204C1083.12 734.624 1083.39 730.673 1083.79 727.206C1085.03 716.441 1086.28 705.68 1087.51 694.925C1087.92 690.298 1088.72 685.712 1089.89 681.215C1090.31 679.719 1090.83 678.247 1091.35 676.774C1092.07 674.748 1092.8 672.721 1093.35 670.64C1094.11 667.295 1094.63 663.901 1094.92 660.484C1096.19 649.655 1097.73 638.849 1099.07 628.028L1099.14 627.458C1101.16 611.057 1102.7 594.576 1102.26 578.056C1102.19 575.61 1102.09 573.164 1101.93 570.71C1101.71 567.155 1101.39 565.271 1104.31 563.047C1107.56 560.593 1111.85 558.875 1115.57 557.269C1117.57 556.398 1139.64 548.561 1140.12 550.287C1141.14 553.952 1141.68 557.737 1141.7 561.543C1141.75 566.214 1141.53 570.884 1141.05 575.53V575.53Z"
      fill="#605D82" />
    <path opacity="0.1"
      d="M1131.46 667.521C1130.67 672.12 1129.66 676.695 1128.5 681.231C1125.29 693.825 1120.62 706.134 1119.12 719.045C1119.07 719.417 1119.03 719.837 1118.99 720.177C1109.15 706.134 1100.87 691.031 1091.27 676.838C1091.99 674.811 1092.72 672.785 1093.27 670.703C1094.06 667.339 1094.61 663.924 1094.92 660.484C1096.19 649.655 1097.73 638.849 1099.07 628.028L1099.14 627.458C1099.7 629.755 1100.5 631.986 1101.52 634.116C1107.97 647.209 1123.28 653.826 1130.77 666.357C1131.02 666.748 1131.25 667.135 1131.46 667.521Z"
      fill="black" />
    <path
      d="M1051.65 552.408C1051.98 562.905 1053.66 573.314 1055.33 583.684L1058.8 605.057C1060.69 616.772 1062.67 628.717 1068.21 639.206C1072.36 647.058 1078.33 653.755 1083.74 660.792C1097.03 678.096 1107.02 697.704 1119.62 715.515C1123.28 720.692 1128.52 726.296 1134.77 725.212C1138.87 724.507 1141.85 721.087 1145.06 718.459C1148.86 715.356 1153.44 713.084 1156.43 709.19C1159.43 705.295 1160.01 698.836 1155.96 696.065C1154.57 695.123 1152.89 694.767 1151.32 694.165C1145.04 691.791 1140.97 685.648 1138.38 679.442C1135.8 673.236 1134.23 666.579 1130.78 660.808C1123.29 648.277 1107.97 641.66 1101.52 628.559C1097.91 621.229 1097.56 612.727 1097.29 604.597L1096.59 583.771C1096.51 581.491 1096.45 579.124 1097.38 577.042C1099.84 571.501 1107.29 570.979 1113.32 570.274C1120.16 569.476 1126.79 567.386 1132.86 564.116C1136.33 562.24 1139.72 559.849 1141.57 556.366C1143.26 553.2 1143.49 549.471 1143.69 545.878L1145.78 508.127C1145.96 504.881 1146.12 501.517 1144.99 498.477C1142.11 490.831 1132.45 488.329 1124.29 488.693C1109.1 489.374 1095.08 495.905 1080.73 500.322C1077.18 501.414 1073.6 502.396 1069.94 503.132C1066.77 503.773 1062.81 503.512 1059.77 504.541C1054.32 506.377 1054.46 518.299 1053.69 523.238C1052.1 532.877 1051.42 542.643 1051.65 552.408V552.408Z"
      fill="#605D82" />
    <path
      d="M1132.71 726.81C1134.05 728.164 1134.48 730.143 1134.83 732.011C1136.76 742.379 1137.77 752.898 1137.84 763.445C1137.75 764.429 1137.95 765.417 1138.4 766.295C1138.78 766.815 1139.29 767.224 1139.88 767.482C1143.75 769.327 1148.24 766.754 1151.48 763.928C1157.45 758.696 1162.52 751.666 1162.86 743.727C1162.94 741.684 1162.71 739.618 1163.07 737.6C1163.59 734.608 1165.34 732.003 1166.88 729.391C1169.51 724.938 1171.63 720.207 1173.21 715.285C1173.8 713.433 1174.2 711.105 1172.74 709.815C1172.23 709.41 1171.65 709.106 1171.02 708.921L1153.52 702.43C1152 701.868 1148.23 711.549 1147.63 712.609C1146.17 715.198 1144.71 716.662 1141.77 717.264C1138.84 717.865 1135.21 716.995 1132.41 718.491C1127.65 721.016 1130.02 724.111 1132.71 726.81Z"
      fill="#535070" />
    <path
      d="M1105.72 732.787C1105.39 732.14 1104.94 731.567 1104.39 731.101C1103.58 730.586 1102.66 730.274 1101.7 730.191C1098.38 729.621 1094.43 729.249 1092.13 731.726C1089.97 734.046 1090.35 737.821 1088.55 740.434C1087.98 741.225 1087.2 741.938 1086.71 742.808C1086.1 744.141 1085.83 745.604 1085.92 747.067C1085.82 751.096 1085.73 755.141 1086.01 759.163C1086.24 762.535 1086.81 766.073 1088.92 768.717C1092.31 772.96 1098.42 773.569 1103.84 773.839L1108.24 774.068C1109.44 774.21 1110.67 774.096 1111.83 773.736C1112.55 773.405 1113.2 772.932 1113.73 772.346C1114.26 771.76 1114.67 771.072 1114.94 770.324C1117.22 764.64 1113.61 758.521 1111.37 752.822C1108.8 746.26 1109.26 738.985 1105.72 732.787Z"
      fill="#535070" />
    <path
      d="M1069.38 314.774C1069.32 314.198 1069.4 313.616 1069.62 313.08C1070.26 311.948 1071.94 312.288 1073.21 312.573C1078.3 313.855 1083.67 312.692 1088.92 312.993C1094.17 313.293 1100.08 315.914 1101.13 321.059C1104.94 318.364 1108.22 314.994 1110.82 311.117C1112.27 308.94 1113.54 306.446 1113.34 303.834C1113.06 300.066 1109.9 297.248 1107.01 294.857L1098.3 287.733C1097.15 286.681 1095.83 285.84 1094.38 285.248C1092.37 284.559 1090.17 284.891 1088.05 284.891C1081.71 284.891 1074.92 282.002 1069.27 284.891C1066.9 286.102 1065.13 288.184 1063.42 290.211L1055.64 299.425C1055.05 300.012 1054.62 300.739 1054.38 301.538C1054.16 302.662 1054.74 303.771 1054.95 304.903C1055.31 306.961 1054.42 309.161 1055.1 311.14C1056.24 314.417 1060.23 314.885 1062.67 316.769C1063.57 317.465 1065 319.848 1066.08 319.816C1067.99 319.777 1069.32 316.294 1069.38 314.774Z"
      fill="#3F3D56" />
    <path
      d="M1082.59 341.949C1096.36 341.949 1107.53 330.785 1107.53 317.014C1107.53 303.243 1096.36 292.079 1082.59 292.079C1068.81 292.079 1057.64 303.243 1057.64 317.014C1057.64 330.785 1068.81 341.949 1082.59 341.949Z"
      fill="#FFC0C6" />
    <path
      d="M1088.43 371.578C1087.58 369.161 1085.99 367.075 1083.89 365.621C1081.78 364.167 1079.26 363.42 1076.7 363.488C1075.97 363.628 1075.21 363.531 1074.53 363.211C1074.15 362.919 1073.84 362.539 1073.64 362.103C1072.12 359.374 1070.91 356.492 1070 353.506C1069.61 352.184 1069.06 350.625 1067.72 350.284C1066.64 350.007 1065.54 350.704 1064.82 351.551C1064.18 352.46 1063.49 353.329 1062.75 354.155C1059.58 356.957 1054.04 354.401 1050.72 356.973C1050.17 357.393 1049.72 357.931 1049.13 358.319C1048.56 358.666 1047.95 358.933 1047.3 359.11C1040.86 361.205 1034.55 363.671 1028.39 366.496C1030.61 379.826 1032.88 393.41 1038.07 405.877C1040.54 411.814 1043.34 417.632 1045.32 423.751C1049.7 437.311 1049.89 451.821 1049.95 466.078C1049.95 475.83 1049.95 485.788 1046.78 495.018C1046.07 497.108 1045.2 499.182 1045 501.351C1044.8 503.52 1045.45 505.974 1047.23 507.272C1048.26 507.952 1049.45 508.368 1050.68 508.483C1056.15 509.274 1061.66 507.834 1067.05 506.583C1081.48 503.243 1096.21 501.327 1110.9 499.459L1135.53 496.292C1137.3 496.169 1139.03 495.721 1140.63 494.97C1145.14 492.509 1145.57 485.733 1142.76 481.426C1141.43 479.36 1139.53 477.666 1138.4 475.482C1137.27 473.297 1137.18 470.225 1139.12 468.714C1143.08 465.626 1141.89 459.903 1142.08 454.9C1142.61 440.905 1142.54 426.92 1141.87 412.946C1141.67 410.048 1141.62 407.142 1141.73 404.239C1142 399.315 1143.22 394.494 1144.44 389.705L1151.93 360.258C1149.97 357.171 1146.23 355.208 1142.69 354.321C1139.15 353.435 1135.45 353.174 1131.95 352.089C1124.83 349.873 1118.43 344.252 1110.96 344.775C1110.39 344.785 1109.84 344.92 1109.33 345.171C1107.65 346.128 1107.91 348.551 1107.81 350.482C1107.57 354.765 1104.42 358.335 1100.95 360.844C1097.48 363.353 1093.51 365.174 1090.31 368.032C1089.76 368.449 1089.3 368.983 1088.98 369.596C1088.65 370.209 1088.47 370.885 1088.43 371.578V371.578Z"
      fill="#3F3D56" />
    <path
      d="M989.588 399.513C987.936 400.587 986.179 401.491 984.345 402.212C982.603 402.901 980.742 403.447 979.316 404.65C978.611 405.263 978.018 405.994 977.566 406.812C976.722 408.308 976.296 410.004 976.331 411.722C976.366 413.44 976.861 415.117 977.766 416.578C978.67 418.039 979.95 419.231 981.473 420.029C982.995 420.827 984.703 421.202 986.42 421.115C988.709 420.997 990.871 420.071 992.969 419.16L1010.57 411.506C1013.54 410.215 1016.76 408.711 1018.17 405.782C1018.33 405.508 1018.39 405.187 1018.34 404.872C1018.21 404.527 1017.95 404.245 1017.61 404.081C1013.65 401.502 1010.18 398.23 1007.37 394.423C1006.65 393.442 1005.79 391.13 1004.75 390.537C1001.02 388.47 992.573 397.582 989.588 399.513Z"
      fill="#FFC0C6" />
    <path
      d="M1177.69 393.299L1184.17 400.708C1185.57 402.291 1186.96 403.875 1188.23 405.584C1191.35 409.877 1193.85 414.585 1195.66 419.572C1197.07 423.269 1198.24 427.211 1197.75 431.137C1197.42 433.15 1196.88 435.122 1196.13 437.018C1194.94 440.665 1193.46 444.212 1191.71 447.626C1190.25 450.216 1188.61 452.695 1186.78 455.043C1181.76 461.697 1176.26 467.98 1170.33 473.843C1168.11 476.036 1167.16 479.59 1166.22 482.55C1164.44 488.02 1160.2 492.287 1156.11 496.324C1154.79 497.716 1153.33 498.968 1151.76 500.06C1149.4 501.581 1146.65 502.363 1143.84 502.308C1142.62 502.315 1141.41 502.065 1140.29 501.572C1137.48 500.242 1136.06 497.005 1135.76 493.918C1135.5 491.112 1135.97 488.288 1137.13 485.717C1140.85 477.476 1150.41 473.906 1157.16 467.89C1161.12 464.368 1164.15 459.935 1167.15 455.557C1169.18 452.821 1170.87 449.853 1172.19 446.715C1173.7 442.686 1173.11 437.921 1174.43 433.836C1174.99 432.103 1176.02 430.543 1176.58 428.825C1177.14 427.108 1177.33 425.073 1176.28 423.593C1175.49 422.647 1174.48 421.908 1173.34 421.44C1169.02 419.255 1164.19 416.437 1163.37 411.664C1163.04 409.021 1163.73 406.351 1165.3 404.199C1166.87 402.075 1168.69 400.16 1170.74 398.5C1172.62 396.806 1175.8 394.93 1177.69 393.299Z"
      fill="#FFC0C6" />
    <path
      d="M985.422 409.851C984.282 407.54 982.848 405.181 980.536 404.033C979.411 403.548 978.198 403.297 976.972 403.297C975.747 403.297 974.534 403.548 973.409 404.033C971.168 405.001 969.068 406.269 967.168 407.801L961.577 411.925C960.31 412.757 959.188 413.792 958.259 414.989C957.372 416.441 956.785 418.056 956.532 419.738C955.74 423.593 955.099 427.559 955.653 431.461C956.54 437.794 960.342 443.272 964.523 448.085C967.136 451.077 970.368 454.101 974.343 454.235C976.062 454.291 977.97 453.61 978.683 452.051C978.931 451.431 979.063 450.771 979.071 450.103C979.499 443.074 976.98 436.211 974.05 429.807C973.258 428.066 972.403 426.261 972.466 424.353C972.442 424.029 972.525 423.706 972.704 423.435C972.955 423.171 973.292 423.006 973.654 422.968C977.669 422.176 984.591 425.295 987.402 420.838C989.224 417.894 986.721 412.471 985.422 409.851Z"
      fill="#FFC0C6" />
    <path
      d="M1068.06 306.929C1068.01 306.352 1068.1 305.772 1068.31 305.235C1068.96 304.095 1070.63 304.443 1071.9 304.728C1076.99 306.011 1082.36 304.847 1087.61 305.148C1092.86 305.449 1098.76 308.069 1099.83 313.214C1103.63 310.515 1106.91 307.146 1109.51 303.272C1110.97 301.087 1112.24 298.594 1112.04 295.981C1111.75 292.213 1108.58 289.395 1105.7 287.013L1096.99 279.888C1095.85 278.836 1094.52 277.995 1093.09 277.403C1091.07 276.714 1088.87 277.047 1086.75 277.047C1080.42 277.047 1073.62 274.157 1067.97 277.047C1065.6 278.258 1063.83 280.34 1062.12 282.366L1054.33 291.58C1053.74 292.169 1053.32 292.896 1053.09 293.694C1052.86 294.818 1053.44 295.926 1053.65 297.058C1054.01 299.116 1053.12 301.317 1053.81 303.288C1054.94 306.573 1058.93 307.04 1061.37 308.924C1062.27 309.62 1063.7 312.003 1064.78 311.971C1066.66 311.932 1067.99 308.449 1068.06 306.929Z"
      fill="#3F3D56" />
    <path
      d="M1015.08 375.259C1014.07 375.911 1013.19 376.734 1012.47 377.689C1011.56 379.074 1011.37 380.855 1010.58 382.28C1008.9 385.399 1004.97 386.515 1002.52 389.072C1002.12 389.422 1001.85 389.887 1001.73 390.402C1001.71 391.098 1001.95 391.777 1002.39 392.318L1014.22 410.904C1018.18 411.252 1021.93 408.783 1025.87 409.115C1027.34 409.234 1028.85 409.74 1030.26 409.305C1031.27 408.856 1032.21 408.279 1033.07 407.587C1035.45 406.099 1038.55 405.925 1040.53 403.97C1042.5 402.015 1042.66 399.141 1042.64 396.473C1042.68 394.158 1042.44 391.847 1041.93 389.587C1040.19 382.462 1034.74 376.969 1031.32 370.652C1029.64 367.573 1028.74 365.776 1025.22 367.889C1021.69 370.003 1018.41 372.821 1015.08 375.259Z"
      fill="#3F3D56" />
    <path
      d="M1158.75 365.863C1160.97 367.306 1162.97 369.06 1164.7 371.071C1166.5 373.391 1167.52 376.24 1169.25 378.615C1170.99 380.99 1173.21 382.7 1175.11 384.821C1178.01 388.035 1179.96 391.945 1181.88 395.832C1177.19 401.934 1172.07 407.7 1166.58 413.089C1165.96 413.809 1165.16 414.337 1164.25 414.609C1163.63 414.675 1163.01 414.587 1162.44 414.353C1161.87 414.12 1161.36 413.748 1160.97 413.271C1160.12 412.384 1159.51 411.276 1158.7 410.35C1156.78 408.369 1154.21 407.132 1151.47 406.859C1148.74 406.594 1146 406.554 1143.27 406.74C1142.67 406.811 1142.06 406.71 1141.52 406.447C1141.12 406.17 1140.79 405.794 1140.57 405.355C1137.4 399.909 1138.39 393.069 1139.53 386.848L1142.11 372.599C1142.49 369.879 1143.22 367.218 1144.28 364.683C1145.26 362.585 1147.44 359.023 1150.15 359.657C1152.86 360.29 1156.46 364.216 1158.75 365.863Z"
      fill="#3F3D56" />
    <path
      d="M932.909 470.313L878.352 481.466L877.109 481.347L829.165 476.511V415.78L887.856 405.862L930.43 410.825L930.446 411.094V411.221L932.909 470.313Z"
      fill="#16DB93" />
    <path opacity="0.1" d="M932.909 470.313L878.352 481.466L877.109 481.347V419.089L930.446 411.094L932.909 470.313Z"
      fill="black" />
    <path opacity="0.05"
      d="M930.446 411.221L930.43 411.236L877.109 419.089L829.165 415.78L887.856 405.862L930.43 410.825L930.446 411.094V411.221Z"
      fill="black" />
    <path
      d="M961.419 410.152L906.862 421.313L905.619 421.187L857.675 416.35V355.62L916.365 345.701L958.94 350.664L958.956 350.933V351.06L961.419 410.152Z"
      fill="#3F3D56" />
    <path opacity="0.1" d="M961.419 410.152L906.862 421.313L905.619 421.187V358.928L958.956 350.933L961.419 410.152Z"
      fill="black" />
    <path opacity="0.05"
      d="M958.956 351.06L958.94 351.076L905.619 358.928L857.675 355.62L916.365 345.701L958.94 350.664L958.956 350.933V351.06Z"
      fill="black" />
  </g>
  <defs>
    <clipPath id="clip0">
      <rect width="752" height="557" fill="white" transform="translate(612 228)" />
    </clipPath>
  </defs>
</svg>