<svg width="306" height="275" viewBox="0 0 306 275" fill="none" xmlns="http://www.w3.org/2000/svg">
<g clip-path="url(#clip0)">
<path d="M303.315 105.166C303.206 105.166 303.099 105.132 303.009 105.069L154.54 1.55435C154.088 1.2408 153.552 1.07324 153.002 1.07418C152.452 1.07512 151.916 1.24451 151.465 1.5596L4.06598 105.068C3.94939 105.15 3.8051 105.182 3.66484 105.158C3.52458 105.133 3.39983 105.054 3.31806 104.937C3.23629 104.82 3.20417 104.676 3.22879 104.535C3.2534 104.395 3.33273 104.27 3.44932 104.188L150.848 0.679421C151.48 0.238362 152.23 0.0012714 153 5.09911e-06C153.77 -0.00126121 154.521 0.233355 155.154 0.672335L303.622 104.187C303.716 104.252 303.787 104.346 303.824 104.454C303.86 104.563 303.862 104.68 303.828 104.789C303.793 104.898 303.725 104.994 303.633 105.061C303.541 105.129 303.429 105.166 303.315 105.166L303.315 105.166Z" fill="#023047"/>
<path d="M12.4893 108.835L153.148 4.47107L294.875 116.261L160.396 196.072L87.3852 179.411L12.4893 108.835Z" fill="#EEEEEE"/>
<path d="M93.5478 245.368H24.0588C23.6321 245.369 23.2095 245.285 22.8151 245.122C22.4207 244.959 22.0624 244.72 21.7605 244.418C21.4586 244.116 21.2191 243.758 21.0556 243.363C20.8922 242.968 20.8081 242.545 20.8081 242.118C20.8081 241.691 20.8922 241.268 21.0556 240.873C21.2191 240.479 21.4586 240.12 21.7605 239.819C22.0624 239.517 22.4207 239.277 22.8151 239.114C23.2095 238.951 23.6321 238.867 24.0588 238.868H93.5478C93.9745 238.867 94.3971 238.951 94.7914 239.114C95.1858 239.277 95.5442 239.517 95.8461 239.819C96.148 240.12 96.3875 240.479 96.5509 240.873C96.7143 241.268 96.7984 241.691 96.7984 242.118C96.7984 242.545 96.7143 242.968 96.5509 243.363C96.3875 243.758 96.148 244.116 95.8461 244.418C95.5442 244.72 95.1858 244.959 94.7914 245.122C94.3971 245.285 93.9745 245.369 93.5478 245.368V245.368Z" fill="#16DB93"/>
<path d="M48.9899 231.395H24.0588C23.6321 231.395 23.2095 231.311 22.8151 231.148C22.4207 230.985 22.0624 230.746 21.7605 230.444C21.4586 230.142 21.2191 229.784 21.0556 229.389C20.8922 228.995 20.8081 228.572 20.8081 228.144C20.8081 227.717 20.8922 227.294 21.0556 226.9C21.2191 226.505 21.4586 226.147 21.7605 225.845C22.0624 225.543 22.4207 225.304 22.8151 225.14C23.2095 224.977 23.6321 224.894 24.0588 224.894H48.9899C49.4166 224.894 49.8392 224.977 50.2335 225.14C50.6279 225.304 50.9863 225.543 51.2882 225.845C51.5901 226.147 51.8296 226.505 51.993 226.9C52.1564 227.294 52.2405 227.717 52.2405 228.144C52.2405 228.572 52.1564 228.995 51.993 229.389C51.8296 229.784 51.5901 230.142 51.2882 230.444C50.9863 230.746 50.6279 230.985 50.2335 231.148C49.8392 231.311 49.4166 231.395 48.9899 231.395Z" fill="#16DB93"/>
<path d="M155.126 166.964C154.598 166.965 154.075 166.862 153.586 166.662L66.8369 130.627V17.8297C66.8381 16.8322 67.2344 15.876 67.9388 15.1707C68.6433 14.4654 69.5985 14.0687 70.5948 14.0675H237.016C238.012 14.0687 238.967 14.4654 239.672 15.1707C240.376 15.876 240.773 16.8322 240.774 17.8297V130.705L240.611 130.775L156.713 166.644C156.21 166.856 155.671 166.964 155.126 166.964Z" fill="#F5F5F5"/>
<path d="M155.126 167.233C154.563 167.233 154.005 167.124 153.484 166.911L66.5688 130.806V17.8297C66.5701 16.761 66.9946 15.7365 67.7495 14.9808C68.5043 14.2251 69.5277 13.8 70.5952 13.7988H237.016C238.084 13.8 239.107 14.2251 239.862 14.9808C240.617 15.7365 241.041 16.761 241.043 17.8297V130.883L156.819 166.891C156.283 167.117 155.707 167.233 155.126 167.233V167.233ZM67.6425 130.088L153.893 165.917C154.698 166.244 155.599 166.238 156.399 165.902L239.969 130.173V17.8297C239.968 17.046 239.657 16.2947 239.103 15.7405C238.55 15.1864 237.799 14.8747 237.016 14.8737H70.5952C69.8124 14.8747 69.0619 15.1864 68.5084 15.7405C67.9549 16.2947 67.6435 17.046 67.6425 17.8297L67.6425 130.088Z" fill="#023047"/>
<path d="M302.242 104.091H302.135L240.505 130.437L156.184 166.483C155.854 166.622 155.501 166.694 155.143 166.696C154.786 166.698 154.431 166.629 154.1 166.494L67.1053 130.361L3.96183 104.134L3.86537 104.091H3.75789C2.76158 104.092 1.80638 104.489 1.10188 105.194C0.397377 105.899 0.00110549 106.855 0 107.853V271.238C0.00110691 272.235 0.397377 273.192 1.10188 273.897C1.80638 274.602 2.76158 274.999 3.75789 275H302.242C303.238 274.999 304.194 274.602 304.898 273.897C305.603 273.192 305.999 272.235 306 271.238V107.853C305.999 106.855 305.603 105.899 304.898 105.194C304.194 104.489 303.238 104.092 302.242 104.091V104.091ZM304.926 271.238C304.926 271.95 304.643 272.634 304.14 273.138C303.637 273.642 302.954 273.925 302.242 273.925H3.75789C3.04609 273.925 2.36351 273.642 1.86019 273.138C1.35686 272.634 1.07397 271.95 1.07368 271.238V107.853C1.07466 107.158 1.34391 106.49 1.82515 105.989C2.30638 105.489 2.96235 105.193 3.65593 105.166L67.1053 131.522L153.687 167.488C154.625 167.87 155.675 167.864 156.608 167.472L240.505 131.603L302.35 105.166C303.042 105.196 303.696 105.492 304.176 105.992C304.656 106.493 304.925 107.159 304.926 107.853V271.238Z" fill="#023047"/>
<path d="M154.259 134.979C151.057 134.985 147.939 133.948 145.377 132.025L145.218 131.906L111.767 106.265C110.217 105.077 108.917 103.595 107.94 101.903C106.963 100.212 106.328 98.3445 106.072 96.4075C105.816 94.4705 105.944 92.5021 106.448 90.6144C106.951 88.7268 107.822 86.9569 109.009 85.406C110.196 83.855 111.676 82.5534 113.366 81.5752C115.055 80.5971 116.92 79.9617 118.855 79.7053C120.79 79.4489 122.756 79.5765 124.642 80.0809C126.527 80.5852 128.295 81.4565 129.844 82.6448L151.511 99.2777L202.714 32.426C203.902 30.8754 205.383 29.5742 207.073 28.5967C208.762 27.6191 210.628 26.9844 212.563 26.7287C214.498 26.473 216.464 26.6013 218.349 27.1064C220.235 27.6115 222.002 28.4834 223.551 29.6723L223.233 30.1051L223.559 29.6786C226.683 32.0824 228.727 35.6287 229.243 39.5394C229.759 43.4501 228.704 47.4059 226.31 50.5389L166.083 129.173C164.69 130.985 162.899 132.451 160.848 133.458C158.798 134.465 156.543 134.985 154.259 134.979V134.979Z" fill="#16DB93"/>
</g>
<defs>
<clipPath id="clip0">
<rect width="306" height="275" fill="white"/>
</clipPath>
</defs>
</svg>
